# xmcd
#
# Track frame offsets: 
#        150
#        14797
#        32850
#        49767
#        64070
#        83535
#        104992
#        121467
#
# Disc length: 1907 seconds
#
# Revision: 0
# Processed by: cddbd v1.5.2PL0 Copyright (c) Steve Scherf et al.
# Submitted via: ExactAudioCopy v1.0b3
#
DISCID=6f077108
DTITLE=Kecia S Garland - Where I Belong
DYEAR=2001
DGENRE=Religious
TTITLE0=The Bridge Will Apear
TTITLE1=Without Your Love
TTITLE2=Send Grace
TTITLE3=I Wonder
TTITLE4=Where I Belong
TTITLE5=Father
TTITLE6=Tears on the Altar
TTITLE7=Silent and Still
EXTD=
EXTT0=
EXTT1=
EXTT2=
EXTT3=
EXTT4=
EXTT5=
EXTT6=
EXTT7=
PLAYORDER=
